<svg width="177" height="57" viewBox="0 0 177 57" fill="none" xmlns="http://www.w3.org/2000/svg">
<path d="M13.0537 35.7942V26.5073H24.4156V48.465C23.3115 50.721 21.7087 52.7137 19.6073 54.4433C17.5178 56.1478 15.3985 57 13.2496 57C10.519 57 8.13854 55.7968 6.10836 53.3905C4.07818 50.9591 2.55257 47.5 1.53154 43.0132C0.510514 38.5013 0 33.6009 0 28.312C0 22.5719 0.569876 17.471 1.70963 13.0092C2.84938 8.54749 4.51746 5.12599 6.71385 2.74472C8.38787 0.914908 10.4715 0 12.9647 0C16.2059 0 18.7347 1.44129 20.5512 4.32388C22.3795 7.1814 23.5549 11.1418 24.0773 16.2051L18.8415 18.2731C18.4735 15.566 17.779 13.4354 16.7579 11.8813C15.7488 10.3021 14.4844 9.51253 12.9647 9.51253C10.6614 9.51253 8.82715 11.0541 7.46182 14.1372C6.10836 17.2203 5.43163 21.7949 5.43163 27.8608C5.43163 34.403 6.12023 39.316 7.49743 42.5996C8.87464 45.8582 10.6792 47.4875 12.9113 47.4875C14.0154 47.4875 15.1195 47.0363 16.2237 46.1339C17.3397 45.2065 18.2954 44.091 19.0909 42.7876V35.7942H13.0537Z" fill="white"/>
<path d="M52.8382 56.06H47.1038L44.8243 43.5396H34.3885L32.2336 56.06H26.6417L36.8104 0.939974H42.3845L52.8382 56.06ZM43.1325 34.2526L39.5352 13.7988L36.0091 34.2526H43.1325Z" fill="white"/>
<path d="M58.8219 56.06V10.2645H51.0752V0.939974H71.8222V10.2645H64.0933V56.06H58.8219Z" fill="white"/>
<path d="M75.2415 56.06V0.939974H94.5995V10.2645H80.5128V22.4842H93.62V31.7711H80.5128V46.7731H95.0981V56.06H75.2415Z" fill="white"/>
<path d="M125.515 46.2467V56.06H107.974C108.164 52.3503 108.734 48.841 109.683 45.5323C110.633 42.1986 112.509 37.7869 115.311 32.2975C117.567 27.8608 118.95 24.8529 119.46 23.2737C120.149 21.093 120.493 18.9373 120.493 16.8067C120.493 14.4505 120.19 12.6458 119.585 11.3925C118.991 10.1141 118.166 9.47493 117.11 9.47493C116.065 9.47493 115.234 10.1392 114.616 11.4677C113.999 12.7962 113.643 15.002 113.548 18.0851L108.561 17.0323C108.858 11.217 109.79 7.04354 111.357 4.51187C112.925 1.98021 114.883 0.71438 117.234 0.71438C119.811 0.71438 121.835 2.18074 123.307 5.11346C124.779 8.04617 125.515 11.6933 125.515 16.0547C125.515 18.5363 125.302 20.905 124.874 23.161C124.459 25.3918 123.794 27.7355 122.88 30.192C122.274 31.8212 121.182 34.1649 119.603 37.223C118.024 40.281 117.021 42.3113 116.593 43.314C116.178 44.3166 115.839 45.2942 115.578 46.2467H125.515Z" fill="white"/>
<path d="M128.739 41.434L133.583 40.1933C133.737 42.8001 134.152 44.7929 134.829 46.1715C135.506 47.5501 136.325 48.2394 137.287 48.2394C138.32 48.2394 139.186 47.4123 139.887 45.7579C140.599 44.1036 140.955 41.8727 140.955 39.0653C140.955 36.4083 140.617 34.3028 139.94 32.7487C139.264 31.1946 138.438 30.4175 137.465 30.4175C136.824 30.4175 136.058 30.6807 135.168 31.2071L135.72 22.597C137.073 22.6722 138.106 22.058 138.818 20.7546C139.531 19.4261 139.887 17.6715 139.887 15.4908C139.887 13.6359 139.626 12.157 139.103 11.0541C138.581 9.95119 137.886 9.39974 137.02 9.39974C136.165 9.39974 135.435 10.0264 134.829 11.2797C134.224 12.533 133.856 14.3628 133.725 16.7691L129.113 15.1148C129.433 11.781 129.914 9.12401 130.555 7.1438C131.208 5.13852 132.11 3.5719 133.262 2.44393C134.425 1.2909 135.726 0.71438 137.162 0.71438C139.62 0.71438 141.59 2.36873 143.075 5.67744C144.297 8.38456 144.909 11.4426 144.909 14.8516C144.909 19.6893 143.656 23.5495 141.151 26.4321C142.647 27.1088 143.84 28.6253 144.731 30.9815C145.633 33.3377 146.084 36.1827 146.084 39.5165C146.084 44.3542 145.247 48.4776 143.573 51.8865C141.899 55.2955 139.816 57 137.322 57C134.96 57 133.001 55.5712 131.446 52.7137C129.89 49.8311 128.988 46.0712 128.739 41.434Z" fill="white"/>
<path d="M150.287 56.06V45.4947H155.291V56.06H150.287Z" fill="white"/>
<path d="M159.441 41.8852L164.427 40.7949C164.57 43.1761 164.991 45.0686 165.692 46.4723C166.392 47.8509 167.199 48.5402 168.113 48.5402C169.158 48.5402 170.043 47.6504 170.767 45.8707C171.491 44.066 171.853 41.3588 171.853 37.7493C171.853 34.3654 171.491 31.8338 170.767 30.1544C170.055 28.4499 169.123 27.5976 167.971 27.5976C166.534 27.5976 165.246 28.9387 164.107 31.6207L160.046 30.3799L162.611 1.69195H175.842V11.5805H166.404L165.62 20.9426C166.736 19.7645 167.876 19.1755 169.04 19.1755C171.26 19.1755 173.141 20.8799 174.685 24.2889C176.228 27.6979 177 32.122 177 37.5613C177 42.0983 176.377 46.1464 175.13 49.7058C173.432 54.5686 171.076 57 168.06 57C165.65 57 163.685 55.6339 162.165 52.9017C160.646 50.1695 159.737 46.4974 159.441 41.8852Z" fill="white"/>
</svg>
